<svg id="Layer_1" data-name="Layer 1" xmlns="http://www.w3.org/2000/svg" viewBox="0 0 157 30.77"><defs><style>.cls-1{fill:#fff;}.cls-2{fill:#d1ff87;}.cls-3{fill:#a07fff;fill-rule:evenodd;}.cls-4{fill:#5120dd;}</style></defs><title>BWgzie2ntqnFVbV20aPX (2)</title><path class="cls-1" d="M153,0h4V25.3h-4V22.92a5.23,5.23,0,0,1-2.3,2,7.6,7.6,0,0,1-3.33.76,7.88,7.88,0,0,1-6-2.67,9.3,9.3,0,0,1-2.46-6.55,9.26,9.26,0,0,1,2.46-6.51,7.91,7.91,0,0,1,6-2.66,7.44,7.44,0,0,1,3.33.78,5.15,5.15,0,0,1,2.3,2Zm-4.8,21.83a5.73,5.73,0,0,0,2.81-.74,5.12,5.12,0,0,0,2-1.89V13.78a5,5,0,0,0-2-1.92,5.53,5.53,0,0,0-2.82-.76,5.24,5.24,0,0,0-5.35,5.34,5.27,5.27,0,0,0,1.54,3.85A5.18,5.18,0,0,0,148.18,21.83Z"/><path class="cls-1" d="M137,15.69a9.56,9.56,0,0,1-.14,1.74H123.42a5.45,5.45,0,0,0,1.72,3.37A5.15,5.15,0,0,0,128.66,22a6.34,6.34,0,0,0,2.76-.6,4.38,4.38,0,0,0,1.87-1.64l3.21,2a6.76,6.76,0,0,1-3.09,2.82,11,11,0,0,1-4.82,1,9.15,9.15,0,0,1-4.62-1.2,9,9,0,0,1-3.33-3.36,9.29,9.29,0,0,1-1.22-4.73,9,9,0,0,1,1.2-4.6,8.86,8.86,0,0,1,3.3-3.3,9.1,9.1,0,0,1,4.6-1.2,8.47,8.47,0,0,1,4.29,1.11,8,8,0,0,1,3.07,3A8.3,8.3,0,0,1,137,15.69Zm-13.45-1.35h9.21a3.79,3.79,0,0,0-1.41-2.69,4.55,4.55,0,0,0-3.07-1.06,4.61,4.61,0,0,0-3,1A5.11,5.11,0,0,0,123.56,14.34Z"/><path class="cls-1" d="M117.05,7.27a6.21,6.21,0,0,1,2,.28l-.24,3.8a6.35,6.35,0,0,0-2.1-.36,4.22,4.22,0,0,0-2.32.83A5.35,5.35,0,0,0,112.54,14V25.3h-4V7.64h4v2.42a5,5,0,0,1,2-2A5,5,0,0,1,117.05,7.27Z"/><path class="cls-1" d="M100.56,7.64h4V25.3h-4Z"/><circle class="cls-1" cx="102.62" cy="2.68" r="2.68"/><path class="cls-1" d="M92.56,7.64h4V25.3h-4V22.92a5.32,5.32,0,0,1-2.26,2,7.33,7.33,0,0,1-8.41-1.39A8.37,8.37,0,0,1,80,17.68v-10h4v9.42a4.7,4.7,0,0,0,1.15,3.35,3.94,3.94,0,0,0,3.05,1.24A5.1,5.1,0,0,0,90.68,21a5,5,0,0,0,1.88-1.82Z"/><path class="cls-1" d="M77.27,20.82a7.89,7.89,0,0,1-3.2,3.53,9.45,9.45,0,0,1-4.94,1.31A9,9,0,0,1,62.53,23a8.89,8.89,0,0,1-2.64-6.55,9.33,9.33,0,0,1,1.2-4.69A8.59,8.59,0,0,1,64.4,8.47a9.39,9.39,0,0,1,4.7-1.2,9.09,9.09,0,0,1,4.58,1.16,7.41,7.41,0,0,1,3,3.14l-3.41,1.91a4,4,0,0,0-1.67-1.71,5.36,5.36,0,0,0-6.3.9,5.22,5.22,0,0,0-1.48,3.81,5.2,5.2,0,0,0,1.5,3.79,5.09,5.09,0,0,0,3.77,1.52,5.4,5.4,0,0,0,2.75-.69,4.4,4.4,0,0,0,1.8-1.9Z"/><path class="cls-1" d="M52.79,7.64h4V25.3h-4V22.92a5.2,5.2,0,0,1-2.29,2,7.67,7.67,0,0,1-3.34.76,7.91,7.91,0,0,1-6-2.67,9.34,9.34,0,0,1-2.45-6.55,9.29,9.29,0,0,1,2.45-6.51,7.94,7.94,0,0,1,6-2.66,7.48,7.48,0,0,1,3.34.78,5.12,5.12,0,0,1,2.29,2ZM48,21.83a5.7,5.7,0,0,0,2.81-.74,5.05,5.05,0,0,0,2-1.89V13.78a4.86,4.86,0,0,0-2-1.92A5.59,5.59,0,0,0,48,11.1a5.23,5.23,0,0,0-5.34,5.34A5.25,5.25,0,0,0,48,21.83Z"/><rect class="cls-2" y="13.15" width="18.46" height="17.62"/><path class="cls-3" d="M18.46.56H12.59v8L6.92,2.91,2.77,7.07l6.08,6.08H0V19H8L2.77,24.27l4.15,4.15,5.67-5.66v8h5.87v-8l5.67,5.66,4.15-4.15L23,19h7.18V13.15h-8l6.09-6.08L24.13,2.91,18.46,8.58Z"/><rect class="cls-4" y="13.15" width="18.46" height="5.87"/><rect class="cls-4" x="12.59" y="13.15" width="5.87" height="17.62"/><rect class="cls-4" x="3.03" y="19.04" width="12.37" height="5.87" transform="translate(-12.84 12.95) rotate(-45)"/></svg>