<svg xmlns="http://www.w3.org/2000/svg" xmlns:xlink="http://www.w3.org/1999/xlink" width="240" zoomAndPan="magnify" viewBox="0 0 180 179.999997" height="240" preserveAspectRatio="xMidYMid meet" version="1.0"><defs><clipPath id="e3836dc756"><path d="M 8.042969 13 L 161.792969 13 L 161.792969 146.355469 L 8.042969 146.355469 Z M 8.042969 13 " clip-rule="nonzero"/></clipPath></defs><g clip-path="url(#e3836dc756)"><path fill="#ffffff" d="M 161.324219 49.929688 C 161.011719 50.449219 160.582031 50.839844 160.03125 51.101562 C 159.484375 51.363281 158.910156 51.453125 158.308594 51.371094 C 157.703125 51.285156 157.175781 51.046875 156.71875 50.644531 C 156.261719 50.246094 155.953125 49.753906 155.789062 49.167969 C 156.4375 50.636719 155.648438 49.085938 155.453125 48.511719 C 154.835938 47.050781 155.15625 47.773438 154.570312 46.4375 C 152.019531 40.640625 148.605469 32.941406 145.371094 27.066406 C 143.917969 33.566406 144.566406 41.375 144.023438 49.683594 C 142.675781 66.839844 140.285156 85.242188 129.28125 99.144531 C 126.453125 102.625 123.410156 105.90625 120.152344 108.988281 C 116.898438 112.070312 113.453125 114.925781 109.824219 117.558594 C 106.195312 120.191406 102.410156 122.578125 98.46875 124.714844 C 94.527344 126.851562 90.460938 128.726562 86.277344 130.335938 C 70.402344 137.546875 53.789062 142.046875 36.445312 143.835938 C 28.078125 144.761719 19.679688 145.449219 11.285156 146.078125 C 10.949219 146.082031 10.621094 146.027344 10.300781 145.914062 C 9.984375 145.804688 9.695312 145.640625 9.429688 145.429688 C 9.167969 145.21875 8.949219 144.96875 8.769531 144.683594 C 8.59375 144.394531 8.46875 144.085938 8.398438 143.757812 C 8.328125 143.429688 8.316406 143.097656 8.359375 142.761719 C 8.402344 142.425781 8.5 142.109375 8.652344 141.808594 C 8.804688 141.507812 9.003906 141.242188 9.25 141.007812 C 9.492188 140.777344 9.769531 140.59375 10.078125 140.453125 C 29.078125 137.6875 60.835938 134.851562 82.269531 124.429688 C 101.875 116.429688 118.242188 105.28125 128.398438 89.203125 C 133.34375 81.253906 135.328125 71.597656 137.148438 60.761719 C 138.050781 53.734375 138.519531 46.679688 138.550781 39.59375 C 138.679688 36.269531 138.664062 32.847656 139.074219 29.515625 C 136.027344 36.667969 132.675781 45.027344 129.21875 51.933594 C 129.011719 52.273438 128.753906 52.566406 128.445312 52.816406 C 128.140625 53.066406 127.796875 53.261719 127.425781 53.394531 C 127.050781 53.527344 126.664062 53.597656 126.269531 53.597656 C 125.871094 53.601562 125.484375 53.539062 125.109375 53.40625 C 124.734375 53.277344 124.394531 53.089844 124.082031 52.84375 C 123.769531 52.597656 123.511719 52.304688 123.300781 51.96875 C 123.089844 51.632812 122.9375 51.269531 122.851562 50.882812 C 122.765625 50.496094 122.742188 50.105469 122.789062 49.710938 C 125.863281 41.898438 128.230469 37.625 130.753906 30.960938 C 133.332031 25.589844 134.621094 19.355469 138.324219 14.636719 C 145.347656 9.429688 149.664062 20.574219 152.507812 25.390625 C 156.054688 32.132812 158.992188 39.132812 161.320312 46.390625 C 161.746094 48.546875 162.121094 47.589844 161.324219 49.929688 Z M 161.324219 49.929688 " fill-opacity="1" fill-rule="nonzero"/></g></svg>