<svg xmlns="http://www.w3.org/2000/svg" xmlns:xlink="http://www.w3.org/1999/xlink" width="240" zoomAndPan="magnify" viewBox="0 0 180 179.999997" height="240" preserveAspectRatio="xMidYMid meet" version="1.0"><defs><clipPath id="98c8baab49"><path d="M 11.105469 30 L 168.605469 30 L 168.605469 149 L 11.105469 149 Z M 11.105469 30 " clip-rule="nonzero"/></clipPath><clipPath id="b91c6ca494"><path d="M 11.105469 129 L 168.605469 129 L 168.605469 136 L 11.105469 136 Z M 11.105469 129 " clip-rule="nonzero"/></clipPath><clipPath id="37664883c1"><path d="M 57 161 L 123 161 L 123 168.605469 L 57 168.605469 Z M 57 161 " clip-rule="nonzero"/></clipPath><clipPath id="a49187db28"><path d="M 63 142 L 77 142 L 77 168.605469 L 63 168.605469 Z M 63 142 " clip-rule="nonzero"/></clipPath><clipPath id="bc4098d672"><path d="M 103 142 L 117 142 L 117 168.605469 L 103 168.605469 Z M 103 142 " clip-rule="nonzero"/></clipPath></defs><g clip-path="url(#98c8baab49)"><path fill="#ffffff" d="M 162.113281 142.226562 L 17.878906 142.226562 L 17.878906 37.328125 L 101.996094 37.328125 C 103.808594 37.328125 105.277344 35.859375 105.277344 34.050781 C 105.277344 32.242188 103.808594 30.773438 101.996094 30.773438 L 14.601562 30.773438 C 12.792969 30.773438 11.324219 32.242188 11.324219 34.050781 L 11.324219 145.503906 C 11.324219 147.3125 12.792969 148.78125 14.601562 148.78125 L 165.390625 148.78125 C 167.199219 148.78125 168.667969 147.3125 168.667969 145.503906 L 168.667969 34.050781 C 168.667969 32.242188 167.199219 30.773438 165.390625 30.773438 C 163.578125 30.773438 162.113281 32.242188 162.113281 34.050781 Z M 162.113281 142.226562 " fill-opacity="1" fill-rule="nonzero"/></g><g clip-path="url(#b91c6ca494)"><path fill="#ffffff" d="M 14.601562 135.667969 L 165.390625 135.667969 C 167.199219 135.667969 168.667969 134.199219 168.667969 132.390625 C 168.667969 130.582031 167.199219 129.113281 165.390625 129.113281 L 14.601562 129.113281 C 12.792969 129.113281 11.324219 130.582031 11.324219 132.390625 C 11.324219 134.199219 12.792969 135.667969 14.601562 135.667969 Z M 14.601562 135.667969 " fill-opacity="1" fill-rule="nonzero"/></g><g clip-path="url(#37664883c1)"><path fill="#ffffff" d="M 60.492188 168.449219 L 119.496094 168.449219 C 121.308594 168.449219 122.777344 166.980469 122.777344 165.171875 C 122.777344 163.359375 121.308594 161.894531 119.496094 161.894531 L 60.492188 161.894531 C 58.683594 161.894531 57.214844 163.359375 57.214844 165.171875 C 57.214844 166.980469 58.683594 168.449219 60.492188 168.449219 Z M 60.492188 168.449219 " fill-opacity="1" fill-rule="nonzero"/></g><g clip-path="url(#a49187db28)"><path fill="#ffffff" d="M 70.15625 166.210938 L 76.710938 146.542969 C 77.292969 144.820312 76.355469 142.960938 74.648438 142.394531 C 72.921875 141.816406 71.0625 142.753906 70.5 144.460938 L 63.941406 164.128906 C 63.363281 165.855469 64.300781 167.714844 66.007812 168.277344 C 67.730469 168.859375 69.59375 167.917969 70.15625 166.210938 Z M 70.15625 166.210938 " fill-opacity="1" fill-rule="nonzero"/></g><g clip-path="url(#bc4098d672)"><path fill="#ffffff" d="M 109.835938 166.210938 L 103.277344 146.542969 C 102.699219 144.820312 103.636719 142.960938 105.34375 142.394531 C 107.070312 141.816406 108.929688 142.753906 109.492188 144.460938 L 116.046875 164.128906 C 116.628906 165.855469 115.691406 167.714844 113.984375 168.277344 C 112.257812 168.859375 110.398438 167.917969 109.835938 166.210938 Z M 109.835938 166.210938 " fill-opacity="1" fill-rule="nonzero"/></g><path fill="#ffffff" d="M 151.492188 40.523438 L 84.414062 99.421875 C 83.78125 99.96875 80.792969 95.753906 77.464844 92.472656 C 73.84375 88.90625 69.917969 86.207031 70.515625 85.527344 L 129.417969 18.445312 C 135.496094 11.601562 145.722656 11.292969 152.175781 17.761719 C 158.664062 24.234375 158.339844 34.445312 151.492188 40.523438 Z M 147.546875 22.390625 C 143.742188 18.601562 137.902344 18.769531 134.332031 22.78125 L 77.464844 87.539062 L 82.398438 92.472656 L 147.136719 35.621094 C 151.167969 32.035156 151.355469 26.199219 147.546875 22.390625 Z M 147.546875 22.390625 " fill-opacity="1" fill-rule="nonzero"/><path fill="#ffffff" d="M 42.378906 115.371094 C 40.414062 113.78125 40.910156 110.65625 43.265625 109.753906 C 47.484375 108.148438 49.6875 105.160156 52.65625 98.296875 C 55.320312 92.148438 56.054688 90.714844 58.136719 88.617188 C 64.539062 82.214844 74.921875 82.214844 81.324219 88.617188 C 87.726562 95.019531 87.726562 105.398438 81.324219 111.800781 C 72.699219 120.40625 53.613281 124.382812 42.378906 115.371094 Z M 76.679688 107.15625 C 80.519531 103.316406 80.519531 97.101562 76.679688 93.261719 C 72.835938 89.417969 66.621094 89.417969 62.78125 93.261719 C 61.550781 94.488281 60.902344 95.734375 58.683594 100.890625 C 56.277344 106.457031 54.109375 110.160156 51.050781 112.738281 C 59.554688 115.726562 71.265625 112.585938 76.679688 107.15625 Z M 76.679688 107.15625 " fill-opacity="1" fill-rule="nonzero"/><path fill="#ffffff" d="M 84.15625 76.304688 L 93.613281 85.714844 C 94.894531 86.992188 96.960938 86.992188 98.242188 85.714844 C 99.523438 84.433594 99.523438 82.351562 98.242188 81.070312 L 88.785156 71.664062 C 87.503906 70.382812 85.417969 70.398438 84.140625 71.679688 C 82.859375 72.960938 82.875 75.027344 84.15625 76.304688 Z M 84.15625 76.304688 " fill-opacity="1" fill-rule="nonzero"/></svg>