<svg width="20" height="20" viewBox="0 0 20 20" fill="none" xmlns="http://www.w3.org/2000/svg">
<rect width="20" height="20" rx="10" fill="#D45900"/>
<path d="M6.91674 15.66C6.91674 15.53 6.89174 15.465 6.84174 15.465L6.49674 15.63C6.49674 15.56 6.45674 15.51 6.37674 15.48L6.25674 15.465C6.17674 15.465 6.07674 15.5 5.95674 15.57C5.93674 15.52 5.91174 15.47 5.88174 15.42C5.85174 15.37 5.82674 15.325 5.80674 15.285C5.67674 15.035 5.54674 14.76 5.41674 14.46C5.29674 14.15 5.18174 13.855 5.07174 13.575C4.97174 13.295 4.89174 13.075 4.83174 12.915C4.79174 12.785 4.74674 12.59 4.69674 12.33C4.64674 12.07 4.59674 11.74 4.54674 11.34C4.65674 11.41 4.74174 11.445 4.80174 11.445C4.87174 11.445 4.93674 11.34 4.99674 11.13C5.02674 11.17 5.08174 11.19 5.16174 11.19C5.22174 11.19 5.26674 11.17 5.29674 11.13L5.53674 10.77L5.80674 10.86H5.82174C5.84174 10.86 5.86174 10.85 5.88174 10.83C5.90174 10.81 5.93174 10.79 5.97174 10.77C6.05174 10.72 6.11174 10.695 6.15174 10.695L6.19674 10.71C6.44674 10.83 6.60674 11.05 6.67674 11.37C6.85674 12.13 7.03674 12.51 7.21674 12.51C7.39674 12.51 7.60674 12.32 7.84674 11.94C7.96674 11.75 8.08674 11.53 8.20674 11.28C8.33674 11.03 8.46674 10.75 8.59674 10.44C8.61674 10.56 8.63674 10.62 8.65674 10.62C8.70674 10.62 8.79174 10.495 8.91174 10.245C9.04174 9.995 9.24674 9.65 9.52674 9.21C9.68674 8.94 9.88674 8.635 10.1267 8.295C10.3767 7.955 10.6417 7.605 10.9217 7.245C11.2017 6.885 11.4717 6.545 11.7317 6.225C12.0017 5.905 12.2417 5.63 12.4517 5.4C12.6617 5.17 12.8167 5.02 12.9167 4.95C13.2967 4.69 13.5967 4.44 13.8167 4.2C13.8067 4.27 13.7917 4.335 13.7717 4.395C13.7617 4.445 13.7567 4.48 13.7567 4.5C13.7567 4.54 13.7767 4.56 13.8167 4.56L14.2367 4.35V4.41C14.2367 4.49 14.2567 4.53 14.2967 4.53C14.3267 4.53 14.3867 4.485 14.4767 4.395C14.5667 4.305 14.6167 4.24 14.6267 4.2L14.5967 4.41L15.1067 4.11L14.9867 4.38C15.1467 4.27 15.2617 4.215 15.3317 4.215C15.3717 4.215 15.4017 4.24 15.4217 4.29C15.4417 4.33 15.4517 4.37 15.4517 4.41C15.4517 4.47 15.4267 4.54 15.3767 4.62C15.3267 4.7 15.2617 4.795 15.1817 4.905C15.1217 4.985 15.0217 5.105 14.8817 5.265C14.7517 5.415 14.5517 5.64 14.2817 5.94C14.0117 6.23 13.6517 6.635 13.2017 7.155C13.0817 7.285 12.8967 7.515 12.6467 7.845C12.3967 8.165 12.1117 8.54 11.7917 8.97C11.4817 9.39 11.1717 9.815 10.8617 10.245C10.5517 10.675 10.2767 11.065 10.0367 11.415C9.79674 11.755 9.62674 12.01 9.52674 12.18L8.59674 13.755C8.39674 14.095 8.23174 14.375 8.10174 14.595C7.97174 14.805 7.87174 14.95 7.80174 15.03C7.65174 15.21 7.48674 15.37 7.30674 15.51L7.17174 15.435L7.05174 15.51L6.91674 15.66Z" fill="white"/>
</svg>
