<svg xmlns="http://www.w3.org/2000/svg" xmlns:xlink="http://www.w3.org/1999/xlink" viewBox="0 0 192 40"><path d="M 20 0 C 3.53 0 0 3.53 0 20 C 0 36.47 3.53 40 20 40 C 36.47 40 40 36.47 40 20 C 40 3.53 36.47 0 20 0 Z M 26.81 26.718 C 25.78 27.764 24.656 28.713 23.452 29.553 C 22.538 30.166 21.748 30.626 21.082 30.933 C 20.781 31.065 20.43 30.995 20.203 30.757 L 17.819 28.357 C 17.492 28.026 17.492 27.494 17.819 27.163 L 20.958 24.003 L 22.923 22.025 C 22.857 22.018 22.79 22.017 22.723 22.023 C 22.44 22.033 22.049 22.153 21.552 22.381 L 19.584 23.337 C 17.854 24.123 16.389 24.47 15.19 24.379 C 14.002 24.277 12.86 23.673 11.763 22.569 C 10.428 21.226 9.851 19.769 10.033 18.197 C 10.213 16.604 11.327 14.777 13.374 12.716 C 14.298 11.774 15.329 10.943 16.445 10.24 C 17.326 9.674 18.137 9.272 18.878 9.034 C 19.157 8.95 19.459 9.03 19.66 9.241 L 21.773 11.367 C 22.101 11.698 22.101 12.231 21.773 12.562 L 18.973 15.38 L 17.054 17.311 C 17.164 17.343 17.284 17.348 17.412 17.327 C 17.695 17.27 18.085 17.116 18.582 16.865 L 20.568 15.892 C 22.174 15.095 23.576 14.754 24.775 14.868 C 25.974 14.958 27.099 15.534 28.151 16.592 C 29.587 18.038 30.187 19.621 29.949 21.34 C 29.723 23.047 28.677 24.84 26.811 26.718 Z" fill="rgb(255,255,255)"></path><path d="M 56.936 16.352 C 56.936 13.28 59.48 11.144 63.176 11.144 C 66.728 11.144 68.984 13.112 69.08 16.28 L 66.008 16.28 C 65.936 14.768 64.856 13.88 63.128 13.88 C 61.232 13.88 60.008 14.792 60.008 16.256 C 60.008 17.504 60.68 18.2 62.144 18.536 L 64.904 19.136 C 67.904 19.784 69.368 21.32 69.368 23.936 C 69.368 27.2 66.824 29.312 62.96 29.312 C 59.216 29.312 56.768 27.32 56.696 24.176 L 59.768 24.176 C 59.792 25.664 60.992 26.552 62.96 26.552 C 65 26.552 66.296 25.664 66.296 24.2 C 66.296 23.024 65.696 22.328 64.256 22.016 L 61.472 21.392 C 58.496 20.744 56.936 19.04 56.936 16.352 Z M 79.756 17.144 L 82.683 17.144 L 82.683 29 L 79.971 29 L 79.755 27.416 C 79.035 28.544 77.499 29.312 75.915 29.312 C 73.179 29.312 71.571 27.464 71.571 24.56 L 71.571 17.144 L 74.5 17.144 L 74.5 23.528 C 74.5 25.784 75.388 26.696 77.02 26.696 C 78.868 26.696 79.756 25.616 79.756 23.36 Z M 85.707 34.496 L 85.707 17.144 L 88.419 17.144 L 88.611 18.944 C 89.331 17.576 90.891 16.784 92.691 16.784 C 96.027 16.784 98.235 19.208 98.235 22.928 C 98.235 26.624 96.219 29.312 92.691 29.312 C 90.915 29.312 89.379 28.616 88.635 27.416 L 88.635 34.496 Z M 88.659 23.072 C 88.659 25.208 89.979 26.672 91.995 26.672 C 94.059 26.672 95.283 25.184 95.283 23.072 C 95.283 20.96 94.059 19.448 91.995 19.448 C 89.979 19.448 88.659 20.936 88.659 23.072 Z M 100.567 34.496 L 100.567 17.144 L 103.279 17.144 L 103.471 18.944 C 104.191 17.576 105.751 16.784 107.551 16.784 C 110.887 16.784 113.095 19.208 113.095 22.928 C 113.095 26.624 111.079 29.312 107.551 29.312 C 105.775 29.312 104.239 28.616 103.495 27.416 L 103.495 34.496 Z M 103.519 23.072 C 103.519 25.208 104.839 26.672 106.855 26.672 C 108.919 26.672 110.143 25.184 110.143 23.072 C 110.143 20.96 108.919 19.448 106.855 19.448 C 104.839 19.448 103.519 20.936 103.519 23.072 Z M 118.378 29 L 115.474 29 L 115.474 11.144 L 118.378 11.144 Z M 122.914 14.768 C 121.906 14.768 121.114 13.976 121.114 12.992 C 121.114 12.008 121.906 11.24 122.914 11.24 C 123.874 11.24 124.666 12.008 124.666 12.992 C 124.666 13.976 123.874 14.768 122.914 14.768 Z M 121.45 29 L 121.45 17.144 L 124.378 17.144 L 124.378 29 Z M 132.707 29.312 C 129.179 29.312 126.707 26.744 126.707 23.072 C 126.707 19.352 129.131 16.784 132.611 16.784 C 136.163 16.784 138.419 19.16 138.419 22.856 L 138.419 23.744 L 129.491 23.768 C 129.707 25.856 130.811 26.912 132.755 26.912 C 134.363 26.912 135.419 26.288 135.755 25.16 L 138.467 25.16 C 137.963 27.752 135.803 29.312 132.707 29.312 Z M 132.635 19.184 C 130.907 19.184 129.851 20.12 129.563 21.896 L 135.515 21.896 C 135.515 20.264 134.387 19.184 132.635 19.184 Z M 148.202 17.096 L 148.202 19.808 L 147.122 19.808 C 145.01 19.808 143.69 20.936 143.69 23.24 L 143.69 29 L 140.762 29 L 140.762 17.168 L 143.522 17.168 L 143.69 18.896 C 144.194 17.72 145.322 16.928 146.906 16.928 C 147.314 16.928 147.722 16.976 148.202 17.096 Z M 160.157 29 L 157.085 29 L 157.085 11.456 L 160.157 11.456 L 160.157 18.704 L 167.933 18.704 L 167.933 11.456 L 171.005 11.456 L 171.005 29 L 167.933 29 L 167.933 21.56 L 160.157 21.56 Z M 188.673 30.32 L 186.753 28.16 C 185.505 28.88 184.017 29.288 182.361 29.288 C 177.345 29.288 173.889 25.568 173.889 20.216 C 173.889 14.888 177.369 11.144 182.385 11.144 C 187.401 11.144 190.905 14.864 190.905 20.216 C 190.905 22.736 190.137 24.896 188.769 26.48 L 190.641 28.568 Z M 187.665 20.216 C 187.665 16.472 185.601 14.096 182.385 14.096 C 179.169 14.096 177.105 16.472 177.105 20.216 C 177.105 23.96 179.169 26.336 182.385 26.336 C 183.249 26.336 184.017 26.168 184.713 25.832 L 182.385 23.216 L 184.329 21.464 L 186.657 24.08 C 187.305 23.072 187.665 21.752 187.665 20.216 Z" fill="rgb(255,255,255)"></path></svg>